<?xml version="1.0" encoding="UTF-8" standalone="no"?>
<!-- Generator: Adobe Illustrator 21.1.0, SVG Export Plug-In . SVG Version: 6.00 Build 0)  -->

<svg
   xmlns:dc="http://purl.org/dc/elements/1.1/"
   xmlns:cc="http://creativecommons.org/ns#"
   xmlns:rdf="http://www.w3.org/1999/02/22-rdf-syntax-ns#"
   xmlns:svg="http://www.w3.org/2000/svg"
   xmlns="http://www.w3.org/2000/svg"
   xmlns:sodipodi="http://sodipodi.sourceforge.net/DTD/sodipodi-0.dtd"
   xmlns:inkscape="http://www.inkscape.org/namespaces/inkscape"
   version="1.0"
   id="Layer_1"
   x="0px"
   y="0px"
   viewBox="0 0 158 158"
   enable-background="new 0 0 158 110"
   xml:space="preserve"
   sodipodi:docname="YouTubeRss.svg"
   width="158"
   height="158"
   inkscape:version="0.92.3 (2405546, 2018-03-11)"
   inkscape:export-filename="page-48.png"
   inkscape:export-xdpi="29.16"
   inkscape:export-ydpi="29.16"><metadata
   id="metadata9"><rdf:RDF><cc:Work
       rdf:about=""><dc:format>image/svg+xml</dc:format><dc:type
         rdf:resource="http://purl.org/dc/dcmitype/StillImage" /><dc:title /></cc:Work></rdf:RDF></metadata><defs
   id="defs7">















	
	
</defs><sodipodi:namedview
   pagecolor="#ffffff"
   bordercolor="#666666"
   borderopacity="1"
   objecttolerance="10"
   gridtolerance="10"
   guidetolerance="10"
   inkscape:pageopacity="0"
   inkscape:pageshadow="2"
   inkscape:window-width="1604"
   inkscape:window-height="853"
   id="namedview5"
   showgrid="false"
   showguides="true"
   inkscape:guide-bbox="true"
   inkscape:snap-global="false"
   inkscape:zoom="4.1772152"
   inkscape:cx="87.658304"
   inkscape:cy="72.18483"
   inkscape:window-x="308"
   inkscape:window-y="19"
   inkscape:window-maximized="0"
   inkscape:current-layer="Layer_1" />


<g
   id="g4632"
   transform="translate(0,24)"><path
     d="M 154.4,17.5 C 152.6,10.8 147.3,5.5 140.5,3.7 128.2,0.5 79,0.5 79,0.5 79,0.5 30.7,0.3 18.4,3.5 11.6,5.3 5.1,10.8 3.3,17.5 0,29.7 0.3,55 0.3,55 c 0,0 -0.3,25.3 3,37.5 1.8,6.7 8.4,12.2 15.1,14 12.3,3.3 60.6,3 60.6,3 0,0 48.3,0.2 60.6,-3 6.8,-1.8 13.1,-7.3 14.9,-14 3.3,-12.1 3.3,-37.5 3.3,-37.5 0,0 -0.1,-25.3 -3.4,-37.5 z"
     id="XMLID_142_"
     inkscape:connector-curvature="0"
     style="fill:#ff0000" /><g
     style="fill:#ffffff"
     transform="matrix(0.25711842,0,0,0.25711842,25.081903,-4.224466)"
     id="g4530">
		<path
   inkscape:connector-curvature="0"
   style="fill:#ffffff"
   d="M 296.208,159.16 C 234.445,97.397 152.266,63.382 64.81,63.382 v 64.348 c 70.268,0 136.288,27.321 185.898,76.931 49.609,49.61 76.931,115.63 76.931,185.898 h 64.348 C 391.986,303.103 357.971,220.923 296.208,159.16 Z"
   id="path4524" />
		<path
   inkscape:connector-curvature="0"
   style="fill:#ffffff"
   d="m 64.143,172.273 v 64.348 c 84.881,0 153.938,69.056 153.938,153.939 h 64.348 c 0,-120.364 -97.922,-218.287 -218.286,-218.287 z"
   id="path4526" />
		<circle
   style="fill:#ffffff"
   cx="109.833"
   cy="346.26001"
   r="46.088001"
   id="circle4528" />
	</g></g></svg>